<svg width="117" height="39" viewBox="0 0 117 39" fill="none" xmlns="http://www.w3.org/2000/svg">
<path d="M10.5049 16.9V26.24C10.5049 27.8267 10.0716 29.04 9.20492 29.88C8.35159 30.72 7.17159 31.14 5.66492 31.14C4.06492 31.14 2.78492 30.6933 1.82492 29.8C0.878255 28.9067 0.404922 27.62 0.404922 25.94H4.28492C4.29826 27.0467 4.70492 27.6 5.50492 27.6C6.22492 27.6 6.58492 27.1467 6.58492 26.24V16.9H10.5049ZM18.0646 31.14C16.9446 31.14 15.9379 30.9067 15.0446 30.44C14.1646 29.9733 13.4713 29.3067 12.9646 28.44C12.4579 27.5733 12.2046 26.5533 12.2046 25.38C12.2046 24.22 12.4579 23.2067 12.9646 22.34C13.4846 21.4733 14.1846 20.8067 15.0646 20.34C15.9579 19.8733 16.9646 19.64 18.0846 19.64C19.2046 19.64 20.2046 19.8733 21.0846 20.34C21.9779 20.8067 22.6779 21.4733 23.1846 22.34C23.7046 23.2067 23.9646 24.22 23.9646 25.38C23.9646 26.54 23.7046 27.56 23.1846 28.44C22.6779 29.3067 21.9779 29.9733 21.0846 30.44C20.1913 30.9067 19.1846 31.14 18.0646 31.14ZM18.0646 27.74C18.6113 27.74 19.0646 27.54 19.4246 27.14C19.7979 26.7267 19.9846 26.14 19.9846 25.38C19.9846 24.62 19.7979 24.04 19.4246 23.64C19.0646 23.24 18.6179 23.04 18.0846 23.04C17.5513 23.04 17.1046 23.24 16.7446 23.64C16.3846 24.04 16.2046 24.62 16.2046 25.38C16.2046 26.1533 16.3779 26.74 16.7246 27.14C17.0713 27.54 17.5179 27.74 18.0646 27.74ZM29.4795 21.34C29.7861 20.8067 30.2195 20.3933 30.7795 20.1C31.3395 19.7933 31.9995 19.64 32.7595 19.64C33.6528 19.64 34.4595 19.8733 35.1795 20.34C35.9128 20.8067 36.4861 21.4733 36.8995 22.34C37.3261 23.2067 37.5395 24.22 37.5395 25.38C37.5395 26.54 37.3261 27.56 36.8995 28.44C36.4861 29.3067 35.9128 29.9733 35.1795 30.44C34.4595 30.9067 33.6528 31.14 32.7595 31.14C31.9995 31.14 31.3395 30.9933 30.7795 30.7C30.2195 30.3933 29.7861 29.9733 29.4795 29.44V31H25.5595V16.2H29.4795V21.34ZM33.5595 25.38C33.5595 24.6467 33.3595 24.08 32.9595 23.68C32.5728 23.2667 32.0928 23.06 31.5195 23.06C30.9461 23.06 30.4595 23.2667 30.0595 23.68C29.6728 24.0933 29.4795 24.66 29.4795 25.38C29.4795 26.1133 29.6728 26.6867 30.0595 27.1C30.4595 27.5133 30.9461 27.72 31.5195 27.72C32.0928 27.72 32.5728 27.5133 32.9595 27.1C33.3595 26.6733 33.5595 26.1 33.5595 25.38ZM48.1532 21.54C47.9265 21.1667 47.6132 20.88 47.2132 20.68C46.8265 20.48 46.3665 20.38 45.8332 20.38C44.8465 20.38 44.0665 20.7 43.4932 21.34C42.9332 21.98 42.6532 22.84 42.6532 23.92C42.6532 25.1333 42.9532 26.06 43.5532 26.7C44.1665 27.3267 45.0532 27.64 46.2132 27.64C47.5865 27.64 48.5665 27.02 49.1532 25.78H45.2132V22.96H52.5332V26.76C52.2265 27.5067 51.7732 28.2067 51.1732 28.86C50.5865 29.5133 49.8399 30.0533 48.9332 30.48C48.0265 30.8933 46.9932 31.1 45.8332 31.1C44.4199 31.1 43.1665 30.8 42.0732 30.2C40.9932 29.5867 40.1532 28.74 39.5532 27.66C38.9665 26.5667 38.6732 25.32 38.6732 23.92C38.6732 22.5333 38.9665 21.3 39.5532 20.22C40.1532 19.1267 40.9932 18.28 42.0732 17.68C43.1532 17.0667 44.3999 16.76 45.8132 16.76C47.5865 16.76 49.0532 17.1867 50.2132 18.04C51.3732 18.8933 52.0932 20.06 52.3732 21.54H48.1532ZM58.2099 16.2V31H54.2899V16.2H58.2099ZM65.6623 31.14C64.5423 31.14 63.5356 30.9067 62.6423 30.44C61.7623 29.9733 61.0689 29.3067 60.5623 28.44C60.0556 27.5733 59.8023 26.5533 59.8023 25.38C59.8023 24.22 60.0556 23.2067 60.5623 22.34C61.0823 21.4733 61.7823 20.8067 62.6623 20.34C63.5556 19.8733 64.5623 19.64 65.6823 19.64C66.8023 19.64 67.8023 19.8733 68.6823 20.34C69.5756 20.8067 70.2756 21.4733 70.7823 22.34C71.3023 23.2067 71.5623 24.22 71.5623 25.38C71.5623 26.54 71.3023 27.56 70.7823 28.44C70.2756 29.3067 69.5756 29.9733 68.6823 30.44C67.7889 30.9067 66.7823 31.14 65.6623 31.14ZM65.6623 27.74C66.2089 27.74 66.6623 27.54 67.0223 27.14C67.3956 26.7267 67.5823 26.14 67.5823 25.38C67.5823 24.62 67.3956 24.04 67.0223 23.64C66.6623 23.24 66.2156 23.04 65.6823 23.04C65.1489 23.04 64.7023 23.24 64.3423 23.64C63.9823 24.04 63.8023 24.62 63.8023 25.38C63.8023 26.1533 63.9756 26.74 64.3223 27.14C64.6689 27.54 65.1156 27.74 65.6623 27.74ZM77.0771 21.34C77.3838 20.8067 77.8171 20.3933 78.3771 20.1C78.9371 19.7933 79.5971 19.64 80.3571 19.64C81.2504 19.64 82.0571 19.8733 82.7771 20.34C83.5104 20.8067 84.0838 21.4733 84.4971 22.34C84.9238 23.2067 85.1371 24.22 85.1371 25.38C85.1371 26.54 84.9238 27.56 84.4971 28.44C84.0838 29.3067 83.5104 29.9733 82.7771 30.44C82.0571 30.9067 81.2504 31.14 80.3571 31.14C79.5971 31.14 78.9371 30.9933 78.3771 30.7C77.8171 30.3933 77.3838 29.9733 77.0771 29.44V31H73.1571V16.2H77.0771V21.34ZM81.1571 25.38C81.1571 24.6467 80.9571 24.08 80.5571 23.68C80.1704 23.2667 79.6904 23.06 79.1171 23.06C78.5438 23.06 78.0571 23.2667 77.6571 23.68C77.2704 24.0933 77.0771 24.66 77.0771 25.38C77.0771 26.1133 77.2704 26.6867 77.6571 27.1C78.0571 27.5133 78.5438 27.72 79.1171 27.72C79.6904 27.72 80.1704 27.5133 80.5571 27.1C80.9571 26.6733 81.1571 26.1 81.1571 25.38ZM97.4709 25.26C97.4709 25.5667 97.4509 25.8733 97.4109 26.18H89.9909C90.0309 26.7933 90.1975 27.2533 90.4909 27.56C90.7975 27.8533 91.1842 28 91.6509 28C92.3042 28 92.7709 27.7067 93.0509 27.12H97.2309C97.0575 27.8933 96.7175 28.5867 96.2109 29.2C95.7175 29.8 95.0909 30.2733 94.3309 30.62C93.5709 30.9667 92.7309 31.14 91.8109 31.14C90.7042 31.14 89.7175 30.9067 88.8509 30.44C87.9975 29.9733 87.3242 29.3067 86.8309 28.44C86.3509 27.5733 86.1109 26.5533 86.1109 25.38C86.1109 24.2067 86.3509 23.1933 86.8309 22.34C87.3109 21.4733 87.9775 20.8067 88.8309 20.34C89.6975 19.8733 90.6909 19.64 91.8109 19.64C92.9175 19.64 93.8975 19.8667 94.7509 20.32C95.6042 20.7733 96.2709 21.4267 96.7509 22.28C97.2309 23.12 97.4709 24.1133 97.4709 25.26ZM93.4709 24.28C93.4709 23.8 93.3109 23.4267 92.9909 23.16C92.6709 22.88 92.2709 22.74 91.7909 22.74C91.3109 22.74 90.9175 22.8733 90.6109 23.14C90.3042 23.3933 90.1042 23.7733 90.0109 24.28H93.4709Z" fill="white"/>
<path d="M96.238 17.0411C96.238 17.0411 90.8915 13.9631 92.7032 7.27961C92.7032 7.27961 93.6273 4.491 97.4004 0.188907C97.4004 0.188907 103.41 4.16983 102.895 10.94C102.895 10.94 102.091 15.2508 97.8412 17.1759C97.8412 17.1759 99.1439 12.2675 97.3832 8.4219C97.383 8.42211 97.8631 14.8201 96.238 17.0411Z" fill="#37C16E"/>
<path d="M102.684 13.8922C102.684 13.8922 104.613 11.2962 103.221 7.59138C103.221 7.59138 108.876 4.70003 115.673 9.61458C115.673 9.61458 113.239 15.58 109.979 18.2094C109.979 18.2094 105.731 22.6094 97.9612 18.6988C97.9612 18.6988 102.669 13.7598 107.178 14.3863C107.178 14.3863 105.272 12.9274 102.684 13.8922Z" fill="#37C16E"/>
</svg>
